<mxfile host="65bd71144e">
    <diagram id="diagram_simplified_1" name="Kafka Streams - Simplified">
        <mxGraphModel dx="1152" dy="749" grid="1" gridSize="10" guides="1" tooltips="1" connect="1" arrows="1" fold="1" page="1" pageScale="1" pageWidth="1169" pageHeight="827" background="#ffffff" math="0" shadow="0">
            <root>
                <mxCell id="0"/>
                <mxCell id="1" parent="0"/>
                <mxCell id="title" value="Kafka Streams - Lightweight Real-Time Processing for Supplier Stats" style="text;html=1;strokeColor=none;fillColor=none;align=center;verticalAlign=middle;whiteSpace=wrap;rounded=0;fontSize=18;fontStyle=1;" parent="1" vertex="1">
                    <mxGeometry x="200" y="50" width="700" height="40" as="geometry"/>
                </mxCell>
                <mxCell id="order-producer" value="Order Producer&lt;br&gt;&lt;i&gt;(From Part 2)&lt;/i&gt;" style="rounded=1;whiteSpace=wrap;html=1;fillColor=#dae8fc;strokeColor=#6c8ebf;arcSize=12;fontSize=12;" parent="1" vertex="1">
                    <mxGeometry x="50" y="120" width="130" height="70" as="geometry"/>
                </mxCell>
                <mxCell id="schema-registry" value="Schema Registry" style="shape=cylinder3;whiteSpace=wrap;html=1;boundedLbl=1;backgroundOutline=1;size=15;fillColor=#e1d5e7;strokeColor=#9673a6;fontSize=12;" parent="1" vertex="1">
                    <mxGeometry x="310" y="400" width="100" height="80" as="geometry"/>
                </mxCell>
                <mxCell id="streams-app" value="Kafka Streams App&lt;br&gt;&lt;b&gt;orders-stats-streams&lt;/b&gt;" style="rounded=1;whiteSpace=wrap;html=1;fillColor=#d5e8d4;strokeColor=#82b366;arcSize=12;fontSize=12;" parent="1" vertex="1">
                    <mxGeometry x="550" y="250" width="180" height="90" as="geometry"/>
                </mxCell>
                <mxCell id="topic-stats" value="Topic: orders-avro-stats" style="shape=datastore;whiteSpace=wrap;html=1;fillColor=#dae8fc;strokeColor=#6c8ebf;fontSize=11;" parent="1" vertex="1">
                    <mxGeometry x="850" y="150" width="150" height="70" as="geometry"/>
                </mxCell>
                <mxCell id="topic-skipped" value="Topic: orders-avro-skipped" style="shape=datastore;whiteSpace=wrap;html=1;fillColor=#dae8fc;strokeColor=#6c8ebf;fontSize=11;" parent="1" vertex="1">
                    <mxGeometry x="860" y="350" width="150" height="70" as="geometry"/>
                </mxCell>
                <mxCell id="edge-producer-to-kafka" style="endArrow=classic;html=1;rounded=0;strokeWidth=1;" parent="1" edge="1">
                    <mxGeometry width="50" height="50" relative="1" as="geometry">
                        <mxPoint x="180" y="160" as="sourcePoint"/>
                        <mxPoint x="290" y="160" as="targetPoint"/>
                    </mxGeometry>
                </mxCell>
                <mxCell id="label-producer-to-kafka" value="1. Avro Order Records&lt;br&gt;&lt;i&gt;(to &#39;orders-avro&#39; topic)&lt;/i&gt;" style="edgeLabel;html=1;align=center;verticalAlign=middle;resizable=0;points=[];fontSize=9;" parent="edge-producer-to-kafka" vertex="1" connectable="0">
                    <mxGeometry x="-0.1" y="1" relative="1" as="geometry">
                        <mxPoint x="2" y="-13" as="offset"/>
                    </mxGeometry>
                </mxCell>
                <mxCell id="edge-kafka-to-streams" style="endArrow=classic;html=1;rounded=0;strokeWidth=1;exitX=0.564;exitY=1.044;exitDx=0;exitDy=0;exitPerimeter=0;entryX=0;entryY=0.5;entryDx=0;entryDy=0;" parent="1" target="streams-app" edge="1">
                    <mxGeometry width="50" height="50" relative="1" as="geometry">
                        <mxPoint x="371.2600000000001" y="185.00000000000003" as="sourcePoint"/>
                        <mxPoint x="540.0000000000001" y="294.9800000000001" as="targetPoint"/>
                        <Array as="points">
                            <mxPoint x="426.65999999999997" y="296.92"/>
                        </Array>
                    </mxGeometry>
                </mxCell>
                <mxCell id="label-kafka-to-streams" value="2. Consumes Avro Orders&lt;br&gt;&lt;i&gt;(from &#39;orders-avro&#39;)&lt;/i&gt;" style="edgeLabel;html=1;align=center;verticalAlign=middle;resizable=0;points=[];fontSize=9;" parent="edge-kafka-to-streams" vertex="1" connectable="0">
                    <mxGeometry x="-0.1" y="-2" relative="1" as="geometry">
                        <mxPoint y="-25" as="offset"/>
                    </mxGeometry>
                </mxCell>
                <mxCell id="edge-streams-to-sr-get" style="endArrow=classic;html=1;rounded=0;dashed=1;strokeWidth=1;" parent="1" source="streams-app" target="schema-registry" edge="1">
                    <mxGeometry width="50" height="50" relative="1" as="geometry">
                        <mxPoint x="640" y="350" as="sourcePoint"/>
                        <mxPoint x="420" y="420" as="targetPoint"/>
                        <Array as="points">
                            <mxPoint x="640" y="440"/>
                        </Array>
                    </mxGeometry>
                </mxCell>
                <mxCell id="label-streams-to-sr-get" value="3a. Gets &#39;Order&#39; Schema" style="edgeLabel;html=1;align=center;verticalAlign=middle;resizable=0;points=[];fontSize=9;" parent="edge-streams-to-sr-get" vertex="1" connectable="0">
                    <mxGeometry x="0.1" y="1" relative="1" as="geometry"/>
                </mxCell>
                <mxCell id="edge-streams-to-sr-reg" style="endArrow=classic;html=1;rounded=0;dashed=1;strokeWidth=1;" parent="1" source="streams-app" target="schema-registry" edge="1">
                    <mxGeometry width="50" height="50" relative="1" as="geometry">
                        <mxPoint x="640" y="350" as="sourcePoint"/>
                        <mxPoint x="420" y="420" as="targetPoint"/>
                        <Array as="points">
                            <mxPoint x="500" y="380"/>
                            <mxPoint x="500" y="440"/>
                        </Array>
                    </mxGeometry>
                </mxCell>
                <mxCell id="label-streams-to-sr-reg" value="3b. Registers/Gets &#39;SupplierStats&#39; Schema" style="edgeLabel;html=1;align=center;verticalAlign=middle;resizable=0;points=[];fontSize=9;" parent="edge-streams-to-sr-reg" vertex="1" connectable="0">
                    <mxGeometry x="-0.3" y="-1" relative="1" as="geometry"/>
                </mxCell>
                <mxCell id="edge-streams-to-topic-stats" style="endArrow=classic;html=1;rounded=0;strokeWidth=1;" parent="1" source="streams-app" target="topic-stats" edge="1">
                    <mxGeometry width="50" height="50" relative="1" as="geometry">
                        <mxPoint x="740" y="295" as="sourcePoint"/>
                        <mxPoint x="840" y="185" as="targetPoint"/>
                        <Array as="points">
                            <mxPoint x="790" y="240"/>
                            <mxPoint x="790" y="185"/>
                        </Array>
                    </mxGeometry>
                </mxCell>
                <mxCell id="label-streams-to-topic-stats" value="4. Produces Avro SupplierStats" style="edgeLabel;html=1;align=center;verticalAlign=middle;resizable=0;points=[];fontSize=9;" parent="edge-streams-to-topic-stats" vertex="1" connectable="0">
                    <mxGeometry x="-0.1" y="-1" relative="1" as="geometry"/>
                </mxCell>
                <mxCell id="edge-streams-to-topic-skipped" style="endArrow=classic;html=1;rounded=0;strokeWidth=1;" parent="1" source="streams-app" target="topic-skipped" edge="1">
                    <mxGeometry width="50" height="50" relative="1" as="geometry">
                        <mxPoint x="740" y="315" as="sourcePoint"/>
                        <mxPoint x="840" y="385" as="targetPoint"/>
                        <Array as="points">
                            <mxPoint x="790" y="350"/>
                            <mxPoint x="790" y="385"/>
                        </Array>
                    </mxGeometry>
                </mxCell>
                <mxCell id="label-streams-to-topic-skipped" value="5. Produces JSON Late Records" style="edgeLabel;html=1;align=center;verticalAlign=middle;resizable=0;points=[];fontSize=9;" parent="edge-streams-to-topic-skipped" vertex="1" connectable="0">
                    <mxGeometry x="-0.1" y="1" relative="1" as="geometry"/>
                </mxCell>
                <mxCell id="streams-app-desc" value="Processes orders, tags late data,&lt;br&gt;aggregates supplier stats (windowed)" style="text;html=1;strokeColor=none;fillColor=none;align=center;verticalAlign=middle;whiteSpace=wrap;rounded=0;fontSize=10;" parent="1" vertex="1">
                    <mxGeometry x="540" y="345" width="200" height="40" as="geometry"/>
                </mxCell>
                <mxCell id="3" value="Topic: orders-avro" style="shape=datastore;whiteSpace=wrap;html=1;fillColor=#fff2cc;strokeColor=#d6b656;fontSize=11;" vertex="1" parent="1">
                    <mxGeometry x="290" y="115" width="150" height="70" as="geometry"/>
                </mxCell>
            </root>
        </mxGraphModel>
    </diagram>
</mxfile>